<svg xmlns="http://www.w3.org/2000/svg" xmlns:xlink="http://www.w3.org/1999/xlink" fill="none" viewBox="0 0 1040 400" xmlns:v="https://vecta.io/nano"><style><![CDATA[.B{fill:#fff}.C{fill-rule:evenodd}.D{color-interpolation-filters:sRGB}.E{flood-opacity:0}.F{fill:#f17ba5}.G{fill:#33103f}.H{fill:#733c86}.I{fill:#502160}.J{fill:#ffd480}.K{stroke-width:2}.L{stroke:#733c86}.M{fill:#66cbff}]]></style><path d="M0 0h1040v400H0z" class="G"/><g class="K"><path d="M346 225h110a7 7 0 017 7v52a7 7 0 01-7 7H346a7 7 0 01-7-7v-52a7 7 0 017-7zM170 96h40a7 7 0 017 7v54a7 7 0 01-7 7h-40a7 7 0 01-7-7v-54a7 7 0 017-7zM827 188h68a9 9 0 019 9v68a9 9 0 01-9 9h-68a9 9 0 01-9-9v-68a9 9 0 019-9z" stroke="#502160"/><g class="L"><path d="M128 98H70v8h58zm220-19h-58v8h58zM220 345h-68v8h68zm749-2h-48v8h48zM897 52h-68v8h68z"/><circle transform="matrix(-1 0 0 1 51 133)" r="4"/><circle transform="matrix(-1 0 0 1 375 55)" r="4"/><circle transform="matrix(-1 0 0 1 359 329)" r="4"/><circle transform="matrix(-1 0 0 1 985 310)" r="4"/><circle transform="matrix(-1 0 0 1 800 46)" r="4"/><g stroke-linecap="round" stroke-linejoin="round" stroke-miterlimit="10"><path d="M371.66 127.98c-6.088 6.806-9.002 16.298-7.059 25.938m46.404-30.624c-6.458-4.447-14.642-6.371-22.935-4.699a29.869 29.869 0 0 0-12.049 5.385m47.37 18.083a29.859 29.859 0 0 0-7.991-15.079m8.599 21.61c.041-2.15-.15-4.338-.592-6.534m-58.789 11.855c.087.43.182.857.287 1.279m21.35 21.77c6.717-7.646 9.916-18.228 7.749-28.975m7.906 2.087a41.501 41.501 0 0 0-.561-3.567l.009-.003a7.514 7.514 0 0 0-14.731 2.971c.217 1.818 2.58 14.677-7.796 24.384m16.119 4.104a41.2 41.2 0 0 0 7.192-21.734m-22.612-12.248a14.936 14.936 0 0 0-.246 6.975l.018-.004c1.422 7.053-1.314 13.976-6.518 18.239m31.967 6.791a48.539 48.539 0 0 0 3.948-30.956c-.532-2.587-4.882-14.324-17.672-11.745a14.941 14.941 0 0 0-8.547 5.085M389 126.06a22.5 22.5 0 0 0-17.059 26.382l.011-.003a11.266 11.266 0 0 1-3.77 10.834m47.096 5.845a56.01 56.01 0 0 0 .77-25.569h-.004c-2.086-10.344-10.957-17.588-21.044-18.032m488.38 4.306s-4.4.98-7.17-.65-6.35-7.17-12.38-7.17c-8.96 0-9.94 8.4-16.78 8.11m36.33 19.71s-4.4.98-7.17-.65-6.35-7.17-12.38-7.17c-8.96 0-9.94 8.4-16.78 8.11"/><use xlink:href="#I"/><use xlink:href="#I" x="-34"/><use xlink:href="#I" x="-68"/></g><rect x="506" y="53" width="246" height="288" rx="9" class="G"/><path d="M506 209h246v123a9 9 0 01-9 9H515a9 9 0 01-9-9V209zM516 64a1 1 0 011-1h224a1 1 0 011 1v134a1 1 0 01-1 1H517a1 1 0 01-1-1V64z"/><rect x="536" y="206" width="186" height="6" rx="1" class="G"/></g></g><path d="M521 226h8v8h-8v-8zm-2 0a2 2 0 012-2h8a2 2 0 012 2v8a2 2 0 01-2 2h-8a2 2 0 01-2-2v-8zm18 0h8v8h-8v-8zm-2 0a2 2 0 012-2h8a2 2 0 012 2v8a2 2 0 01-2 2h-8a2 2 0 01-2-2v-8zm26 0h-8v8h8v-8zm-8-2a2 2 0 00-2 2v8a2 2 0 002 2h8a2 2 0 002-2v-8a2 2 0 00-2-2h-8zm16 2h8v8h-8v-8zm-2 0a2 2 0 012-2h8a2 2 0 012 2v8a2 2 0 01-2 2h-8a2 2 0 01-2-2v-8zm26 0h-8v8h8v-8zm-8-2a2 2 0 00-2 2v8a2 2 0 002 2h8a2 2 0 002-2v-8a2 2 0 00-2-2h-8zm16 2h8v8h-8v-8zm-2 0a2 2 0 012-2h8a2 2 0 012 2v8a2 2 0 01-2 2h-8a2 2 0 01-2-2v-8zm26 0h-8v8h8v-8zm-8-2a2 2 0 00-2 2v8a2 2 0 002 2h8a2 2 0 002-2v-8a2 2 0 00-2-2h-8zm16 2h8v8h-8v-8zm-2 0a2 2 0 012-2h8a2 2 0 012 2v8a2 2 0 01-2 2h-8a2 2 0 01-2-2v-8zm26 0h-8v8h8v-8zm-8-2a2 2 0 00-2 2v8a2 2 0 002 2h8a2 2 0 002-2v-8a2 2 0 00-2-2h-8zm16 2h8v8h-8v-8zm-2 0a2 2 0 012-2h8a2 2 0 012 2v8a2 2 0 01-2 2h-8a2 2 0 01-2-2v-8zm26 0h-8v8h8v-8zm-8-2a2 2 0 00-2 2v8a2 2 0 002 2h8a2 2 0 002-2v-8a2 2 0 00-2-2h-8zm16 2h8v8h-8v-8zm-2 0a2 2 0 012-2h8a2 2 0 012 2v8a2 2 0 01-2 2h-8a2 2 0 01-2-2v-8zm26 0h-8v8h8v-8zm-8-2a2 2 0 00-2 2v8a2 2 0 002 2h8a2 2 0 002-2v-8a2 2 0 00-2-2h-8zm16 2h8v8h-8v-8zm-2 0a2 2 0 012-2h8a2 2 0 012 2v8a2 2 0 01-2 2h-8a2 2 0 01-2-2v-8zm-206 16h24v8h-24v-8zm-2 0a2 2 0 012-2h24a2 2 0 012 2v8a2 2 0 01-2 2h-24a2 2 0 01-2-2v-8zm34 0h8v8h-8v-8zm-2 0a2 2 0 012-2h8a2 2 0 012 2v8a2 2 0 01-2 2h-8a2 2 0 01-2-2v-8zm26 0h-8v8h8v-8zm-8-2a2 2 0 00-2 2v8a2 2 0 002 2h8a2 2 0 002-2v-8a2 2 0 00-2-2h-8zm16 2h8v8h-8v-8zm-2 0a2 2 0 012-2h8a2 2 0 012 2v8a2 2 0 01-2 2h-8a2 2 0 01-2-2v-8zm26 0h-8v8h8v-8zm-8-2a2 2 0 00-2 2v8a2 2 0 002 2h8a2 2 0 002-2v-8a2 2 0 00-2-2h-8zm16 2h8v8h-8v-8zm-2 0a2 2 0 012-2h8a2 2 0 012 2v8a2 2 0 01-2 2h-8a2 2 0 01-2-2v-8zm26 0h-8v8h8v-8zm-8-2a2 2 0 00-2 2v8a2 2 0 002 2h8a2 2 0 002-2v-8a2 2 0 00-2-2h-8zm16 2h8v8h-8v-8zm-2 0a2 2 0 012-2h8a2 2 0 012 2v8a2 2 0 01-2 2h-8a2 2 0 01-2-2v-8zm26 0h-8v8h8v-8zm-8-2a2 2 0 00-2 2v8a2 2 0 002 2h8a2 2 0 002-2v-8a2 2 0 00-2-2h-8zm16 2h8v8h-8v-8zm-2 0a2 2 0 012-2h8a2 2 0 012 2v8a2 2 0 01-2 2h-8a2 2 0 01-2-2v-8zm26 0h-8v8h8v-8zm-8-2a2 2 0 00-2 2v8a2 2 0 002 2h8a2 2 0 002-2v-8a2 2 0 00-2-2h-8zm16 2h24v8h-24v-8zm-2 0a2 2 0 012-2h24a2 2 0 012 2v8a2 2 0 01-2 2h-24a2 2 0 01-2-2v-8zm-150 16h-40v8h40v-8zm-40-2a2 2 0 00-2 2v8a2 2 0 002 2h40a2 2 0 002-2v-8a2 2 0 00-2-2h-40zm56 2h-8v8h8v-8zm-8-2a2 2 0 00-2 2v8a2 2 0 002 2h8a2 2 0 002-2v-8a2 2 0 00-2-2h-8zm16 2h8v8h-8v-8zm-2 0a2 2 0 012-2h8a2 2 0 012 2v8a2 2 0 01-2 2h-8a2 2 0 01-2-2v-8zm26 0h-8v8h8v-8zm-8-2a2 2 0 00-2 2v8a2 2 0 002 2h8a2 2 0 002-2v-8a2 2 0 00-2-2h-8zm16 2h8v8h-8v-8zm-2 0a2 2 0 012-2h8a2 2 0 012 2v8a2 2 0 01-2 2h-8a2 2 0 01-2-2v-8zm26 0h-8v8h8v-8zm-8-2a2 2 0 00-2 2v8a2 2 0 002 2h8a2 2 0 002-2v-8a2 2 0 00-2-2h-8zm16 2h8v8h-8v-8zm-2 0a2 2 0 012-2h8a2 2 0 012 2v8a2 2 0 01-2 2h-8a2 2 0 01-2-2v-8zm26 0h-8v8h8v-8zm-8-2a2 2 0 00-2 2v8a2 2 0 002 2h8a2 2 0 002-2v-8a2 2 0 00-2-2h-8zm16 2h8v8h-8v-8zm-2 0a2 2 0 012-2h8a2 2 0 012 2v8a2 2 0 01-2 2h-8a2 2 0 01-2-2v-8zm58 0h-40v8h40v-8zm-40-2a2 2 0 00-2 2v8a2 2 0 002 2h40a2 2 0 002-2v-8a2 2 0 00-2-2h-40zm-168 18h-8v8h8v-8zm-8-2a2 2 0 00-2 2v8a2 2 0 002 2h8a2 2 0 002-2v-8a2 2 0 00-2-2h-8zm24 2h-8v8h8v-8zm-8-2a2 2 0 00-2 2v8a2 2 0 002 2h8a2 2 0 002-2v-8a2 2 0 00-2-2h-8zm16 2h8v8h-8v-8zm-2 0a2 2 0 012-2h8a2 2 0 012 2v8a2 2 0 01-2 2h-8a2 2 0 01-2-2v-8zm26 0h-8v8h8v-8zm-8-2a2 2 0 00-2 2v8a2 2 0 002 2h8a2 2 0 002-2v-8a2 2 0 00-2-2h-8zm16 2h8v8h-8v-8zm-2 0a2 2 0 012-2h8a2 2 0 012 2v8a2 2 0 01-2 2h-8a2 2 0 01-2-2v-8zm26 0h-8v8h8v-8zm-8-2a2 2 0 00-2 2v8a2 2 0 002 2h8a2 2 0 002-2v-8a2 2 0 00-2-2h-8zm16 2h8v8h-8v-8zm-2 0a2 2 0 012-2h8a2 2 0 012 2v8a2 2 0 01-2 2h-8a2 2 0 01-2-2v-8zm26 0h-8v8h8v-8zm-8-2a2 2 0 00-2 2v8a2 2 0 002 2h8a2 2 0 002-2v-8a2 2 0 00-2-2h-8zm16 2h8v8h-8v-8zm-2 0a2 2 0 012-2h8a2 2 0 012 2v8a2 2 0 01-2 2h-8a2 2 0 01-2-2v-8zm26 0h-8v8h8v-8zm-8-2a2 2 0 00-2 2v8a2 2 0 002 2h8a2 2 0 002-2v-8a2 2 0 00-2-2h-8zm16 2h8v8h-8v-8zm-2 0a2 2 0 012-2h8a2 2 0 012 2v8a2 2 0 01-2 2h-8a2 2 0 01-2-2v-8zm26 0h-8v8h8v-8zm-8-2a2 2 0 00-2 2v8a2 2 0 002 2h8a2 2 0 002-2v-8a2 2 0 00-2-2h-8zm16 2h8v8h-8v-8zm-2 0a2 2 0 012-2h8a2 2 0 012 2v8a2 2 0 01-2 2h-8a2 2 0 01-2-2v-8zm-182 16h-8v8h8v-8zm-8-2a2 2 0 00-2 2v8a2 2 0 002 2h8a2 2 0 002-2v-8a2 2 0 00-2-2h-8zm24 2h-8v8h8v-8zm-8-2a2 2 0 00-2 2v8a2 2 0 002 2h8a2 2 0 002-2v-8a2 2 0 00-2-2h-8zm16 2h8v8h-8v-8zm-2 0a2 2 0 012-2h8a2 2 0 012 2v8a2 2 0 01-2 2h-8a2 2 0 01-2-2v-8zm26 0h-8v8h8v-8zm-8-2a2 2 0 00-2 2v8a2 2 0 002 2h8a2 2 0 002-2v-8a2 2 0 00-2-2h-8zm16 2h72v8h-72v-8zm-2 0a2 2 0 012-2h72a2 2 0 012 2v8a2 2 0 01-2 2h-72a2 2 0 01-2-2v-8zm90 0h-8v8h8v-8zm-8-2a2 2 0 00-2 2v8a2 2 0 002 2h8a2 2 0 002-2v-8a2 2 0 00-2-2h-8zm16 2h8v8h-8v-8zm-2 0a2 2 0 012-2h8a2 2 0 012 2v8a2 2 0 01-2 2h-8a2 2 0 01-2-2v-8zm26 0h-8v8h8v-8zm-8-2a2 2 0 00-2 2v8a2 2 0 002 2h8a2 2 0 002-2v-8a2 2 0 00-2-2h-8zm16 2h8v8h-8v-8zm-2 0a2 2 0 012-2h8a2 2 0 012 2v8a2 2 0 01-2 2h-8a2 2 0 01-2-2v-8zm26 0h-8v8h8v-8zm-8-2a2 2 0 00-2 2v8a2 2 0 002 2h8a2 2 0 002-2v-8a2 2 0 00-2-2h-8z" class="C H"/><path d="M605 309a3 3 0 013-3h42a3 3 0 013 3v22a3 3 0 01-3 3h-42a3 3 0 01-3-3v-22z" class="K L"/><rect x="544" y="133" width="30" height="30" rx="4" class="F"/><g class="I"><path d="m678 138h-90v6h90v-6zm-20 14h-70v6h70v-6z" class="C"/><rect x="544" y="89" width="170" height="24" rx="2"/></g><g filter="url(#B)" class="F"><rect x="177" y="41" width="62" height="62" rx="12"/></g><circle cx="208" cy="72" r="20" class="I"/><path d="M213.5 65.5c0 2.985-2.4 6.455-5.5 6.455s-5.5-3.47-5.5-6.455a5.498 5.498 0 1 1 11 0zm-13.154 10.8A8.009 8.009 0 0 1 206 73.956h4a8.009 8.009 0 0 1 8 8 1 1 0 0 1-.695.953A33.284 33.284 0 0 1 208 83.955a33.284 33.284 0 0 1-9.305-1.047 1 1 0 0 1-.695-.953 8.007 8.007 0 0 1 2.346-5.654z" class="B C"/><g class="K L"><rect x="204" y="154" width="86" height="168" rx="11" class="G"/><path d="M211 170h72v132h-72V170z"/></g><path d="m279 268h53v14h-53z" class="G"/><rect x="218" y="185" width="16" height="16" rx="4" class="F"/><rect x="218" y="209" width="16" height="16" rx="4" class="I"/><rect x="218" y="233" width="16" height="16" rx="4" class="J"/><rect x="218" y="257" width="16" height="16" rx="4" class="I"/><g filter="url(#C)" class="M"><rect x="241" y="186" width="108" height="90" rx="6"/></g><path d="M325.276 236.73C313.229 219.825 300.092 218 295 218c-5.135 0-18.366 1.826-30.288 18.744a3.902 3.902 0 0 0 .011 4.509C267.852 245.652 279.274 260 295 260c5.055 0 18.121-1.825 30.264-18.733a3.9 3.9 0 0 0 .012-4.537zM295.006 251a12.002 12.002 0 1 1 4.592-23.087 12.01 12.01 0 0 1 5.386 4.42A11.996 11.996 0 0 1 295.006 251z" class="B"/><path d="M241 192a6 6 0 016-6h96a6 6 0 016 6v10H241v-10z" class="H"/><path d="M108.234 268.121l-6.364 6.364a1.003 1.003 0 0 0-.293.707v25.467a13.497 13.497 0 0 0-5.503 15.359 13.5 13.5 0 1 0 19.523-15.803l-.001-4.518a.997.997 0 0 0-.291-.706l-3.535-3.535 3.535-3.536a.997.997 0 0 0 0-1.414l-3.535-3.535 3.535-3.536a1 1 0 0 0 .293-.707v-4.243a1 1 0 0 0-.293-.707l-5.657-5.657a1.002 1.002 0 0 0-1.414 0zm3.536 48.791a4.005 4.005 0 0 1-4.36.867 4.013 4.013 0 0 1-1.795-1.473 4.007 4.007 0 0 1 4.107-6.146 4 4 0 0 1 2.048 6.752z" class="F"/><path d="M47 198c0-17.673 14.327-32 32-32h61c17.673 0 32 14.327 32 32s-14.327 32-32 32h-10a2 2 0 0 0-2 2v10c0 2.472-2.822 3.883-4.8 2.4l-18.667-14c-.346-.26-.767-.4-1.2-.4H79c-17.673 0-32-14.327-32-32z" class="J"/><path d="M89 200a9 9 0 1 1-18 0 9 9 0 1 1 18 0zm30 0a9 9 0 1 1-18 0 9 9 0 1 1 18 0zm21 9a9 9 0 1 0 0-18 9 9 0 1 0 0 18z" class="B C"/><g filter="url(#D)" class="F"><rect x="840" y="89" width="116" height="74" rx="8"/></g><mask id="A" x="840" y="89" width="116" height="74" maskUnits="userSpaceOnUse"><rect x="840" y="89" width="116" height="74" rx="8" class="F"/></mask><g mask="url(#A)" class="H"><path d="M840 89h116v15.069l-52.527 34.352a10 10 0 01-10.946 0L840 104.069V89z"/></g><g filter="url(#E)" class="H"><path d="M451 243a8 8 0 018-8h76l24 24v96a8 8 0 01-8 8h-92a8 8 0 01-8-8V243z"/></g><path d="M535 235l24 24h-20a4 4 0 01-4-4v-20z" class="B"/><path d="M464 257a2 2 0 012-2h58a2 2 0 012 2v12a2 2 0 01-2 2h-58a2 2 0 01-2-2v-12z" class="M"/><path d="M464 283a2 2 0 012-2h50a2 2 0 012 2v4a2 2 0 01-2 2h-50a2 2 0 01-2-2v-4zm62 0a2 2 0 012-2h16a2 2 0 012 2v4a2 2 0 01-2 2h-16a2 2 0 01-2-2v-4zm-22 36a2 2 0 012-2h38a2 2 0 012 2v4a2 2 0 01-2 2h-38a2 2 0 01-2-2v-4zm-14-20a2 2 0 00-2 2v4a2 2 0 002 2h54a2 2 0 002-2v-4a2 2 0 00-2-2h-54zm-24 18a2 2 0 00-2 2v4a2 2 0 002 2h28a2 2 0 002-2v-4a2 2 0 00-2-2h-28zm-2 20a2 2 0 012-2h78a2 2 0 012 2v4a2 2 0 01-2 2h-78a2 2 0 01-2-2v-4zm2-38a2 2 0 00-2 2v4a2 2 0 002 2h12a2 2 0 002-2v-4a2 2 0 00-2-2h-12z" class="B C"/><g filter="url(#F)" class="C J"><path d="M474.835 38.3c9.945 6.918 24.676 12.012 35.044 12.012.735 0 1.331.597 1.331 1.332 0 15.908-4.816 30.685-13.21 42.303a62.514 62.514 0 01-9.161 10.156c-4.655 4.13-9.926 7.521-15.709 9.999a1.33 1.33 0 01-.525.108h-.033a1.31 1.31 0 01-.491-.108 57.336 57.336 0 01-8.278-4.38A59.706 59.706 0 01453.125 101C441.116 88.648 434 70.982 434 51.644a1.332 1.332 0 011.331-1.332c9.518 0 22.714-4.293 32.507-10.35a56.405 56.405 0 002.536-1.662c.49-.34.967-.685 1.432-1.033a1.33 1.33 0 011.598 0c.465.348.942.693 1.431 1.033zm-2.23 1.682v35.623-35.623z"/></g><g class="B"><path d="M480 69.5h.5V65a7.498 7.498 0 1 0-15 0v4.5h3V65a4.5 4.5 0 1 1 9 0v4.5h2.5z" stroke="#fff"/><path d="M484 70h-22a2 2 0 00-2 2v15a2 2 0 002 2h22a2 2 0 002-2V72a2 2 0 00-2-2z"/></g><g filter="url(#G)" class="M"><rect x="775" y="254" width="116" height="74" rx="8"/></g><path d="m790.26 307.42h46v6h-46zm0-12.21h20v6h-20zm74.737 12.21h14v6h-14v-6z" class="B"/><g class="H"><rect x="790.26" y="266.21" width="24" height="18" rx="3"/><circle cx="862.9" cy="276.26" r="7" opacity=".8"/></g><circle cx="872" cy="276.26" r="7" opacity=".7" class="B"/><g filter="url(#H)" class="J"><rect x="890" y="213" width="110" height="30" rx="15"/></g><path d="M915 233a5 5 0 10-.001-10.001A5 5 0 00915 233zm20 0a5 5 0 10-.001-10.001A5 5 0 00935 233zm25-5a5 5 0 11-10.001-.001A5 5 0 01960 228zm15 5a5 5 0 10-.001-10.001A5 5 0 00975 233z" class="B C"/><defs><filter id="B" x="177" y="41" width="62" height="68" filterUnits="userSpaceOnUse" class="D"><feFlood result="A" class="E"/><feColorMatrix in="SourceAlpha" values="0 0 0 0 0 0 0 0 0 0 0 0 0 0 0 0 0 0 127 0"/><feOffset dy="6"/><feColorMatrix values="0 0 0 0 0 0 0 0 0 0 0 0 0 0 0 0 0 0 0.8 0"/><feBlend in2="A" mode="multiply"/><feBlend in="SourceGraphic"/></filter><filter id="C" x="241" y="186" width="108" height="96" filterUnits="userSpaceOnUse" class="D"><feFlood result="A" class="E"/><feColorMatrix in="SourceAlpha" values="0 0 0 0 0 0 0 0 0 0 0 0 0 0 0 0 0 0 127 0"/><feOffset dy="6"/><feColorMatrix values="0 0 0 0 0 0 0 0 0 0 0 0 0 0 0 0 0 0 0.8 0"/><feBlend in2="A"/><feBlend in="SourceGraphic"/></filter><filter id="D" x="840" y="89" width="116" height="80" filterUnits="userSpaceOnUse" class="D"><feFlood result="A" class="E"/><feColorMatrix in="SourceAlpha" values="0 0 0 0 0 0 0 0 0 0 0 0 0 0 0 0 0 0 127 0"/><feOffset dy="6"/><feColorMatrix values="0 0 0 0 0 0 0 0 0 0 0 0 0 0 0 0 0 0 0.8 0"/><feBlend in2="A"/><feBlend in="SourceGraphic"/></filter><filter id="E" x="451" y="235" width="108" height="134" filterUnits="userSpaceOnUse" class="D"><feFlood result="A" class="E"/><feColorMatrix in="SourceAlpha" values="0 0 0 0 0 0 0 0 0 0 0 0 0 0 0 0 0 0 127 0"/><feOffset dy="6"/><feColorMatrix values="0 0 0 0 0 0 0 0 0 0 0 0 0 0 0 0 0 0 0.8 0"/><feBlend in2="A"/><feBlend in="SourceGraphic"/></filter><filter id="F" x="434" y="37" width="77.21" height="83.21" filterUnits="userSpaceOnUse" class="D"><feFlood result="A" class="E"/><feColorMatrix in="SourceAlpha" values="0 0 0 0 0 0 0 0 0 0 0 0 0 0 0 0 0 0 127 0"/><feOffset dy="6"/><feColorMatrix values="0 0 0 0 0 0 0 0 0 0 0 0 0 0 0 0 0 0 0.8 0"/><feBlend in2="A"/><feBlend in="SourceGraphic"/></filter><filter id="G" x="775" y="254" width="116" height="80" filterUnits="userSpaceOnUse" class="D"><feFlood result="A" class="E"/><feColorMatrix in="SourceAlpha" values="0 0 0 0 0 0 0 0 0 0 0 0 0 0 0 0 0 0 127 0"/><feOffset dy="6"/><feColorMatrix values="0 0 0 0 0 0 0 0 0 0 0 0 0 0 0 0 0 0 0.8 0"/><feBlend in2="A"/><feBlend in="SourceGraphic"/></filter><filter id="H" x="890" y="213" width="110" height="36" filterUnits="userSpaceOnUse" class="D"><feFlood result="A" class="E"/><feColorMatrix in="SourceAlpha" values="0 0 0 0 0 0 0 0 0 0 0 0 0 0 0 0 0 0 127 0"/><feOffset dy="6"/><feColorMatrix values="0 0 0 0 0 0 0 0 0 0 0 0 0 0 0 0 0 0 0.8 0"/><feBlend in2="A"/><feBlend in="SourceGraphic"/></filter><path id="I" d="M849.33 129.82s-4.4.98-7.17-.65-6.35-7.17-12.38-7.17c-8.96 0-9.94 8.4-16.78 8.11m36.33 19.71s-4.4.98-7.17-.65-6.35-7.17-12.38-7.17c-8.96 0-9.94 8.4-16.78 8.11"/></defs></svg>